<?xml version="1.0" encoding="utf-8"?>
<!-- Generator: Adobe Illustrator 27.5.0, SVG Export Plug-In . SVG Version: 6.00 Build 0)  -->
<svg version="1.1" xmlns="http://www.w3.org/2000/svg" xmlns:xlink="http://www.w3.org/1999/xlink" x="0px" y="0px"
	 viewBox="0 0 750 500" style="enable-background:new 0 0 750 500;" xml:space="preserve">
<g id="Background_Complete">
	<g>
		<g>
			<g>
				<g>
					<g>
						
							<ellipse transform="matrix(0.9726 -0.2326 0.2326 0.9726 -43.6741 169.5818)" style="fill:#FFFFFF;" cx="697.251" cy="269.985" rx="28.578" ry="28.578"/>
					</g>
					<g>
						<g>
							<path style="fill:#E0E0E0;" d="M697.251,241.407c0,0.012,0.157,0.031,0.462,0.059c0.341,0.026,0.788,0.06,1.355,0.103
								c0.301,0.02,0.634,0.043,0.997,0.067c0.365,0.041,0.76,0.122,1.191,0.188c0.86,0.141,1.857,0.274,2.94,0.607
								c2.2,0.511,4.798,1.55,7.55,3.181c2.74,1.645,5.601,4.012,8.027,7.23c2.403,3.208,4.446,7.254,5.269,11.922
								c0.793,4.636,0.646,9.868-1.248,14.849c-0.406,1.268-1.034,2.459-1.622,3.684c-0.702,1.16-1.349,2.383-2.228,3.463
								c-0.789,1.148-1.775,2.152-2.725,3.203c-1.052,0.95-2.081,1.948-3.275,2.766c-2.334,1.68-4.928,3.148-7.78,4.035
								c-2.834,0.92-5.845,1.416-8.909,1.457c-3.065-0.041-6.076-0.535-8.912-1.455c-2.853-0.887-5.448-2.355-7.783-4.035
								c-1.194-0.819-2.224-1.817-3.276-2.767c-0.95-1.052-1.937-2.055-2.726-3.203c-0.879-1.08-1.526-2.303-2.228-3.463
								c-0.588-1.225-1.216-2.417-1.622-3.685c-1.895-4.982-2.042-10.214-1.248-14.85c0.823-4.668,2.866-8.714,5.27-11.922
								c2.426-3.218,5.287-5.585,8.028-7.229c2.752-1.631,5.35-2.67,7.55-3.18c1.083-0.333,2.08-0.467,2.94-0.607
								c0.43-0.067,0.826-0.147,1.191-0.188c0.363-0.024,0.696-0.047,0.997-0.067c0.566-0.043,1.014-0.077,1.354-0.103
								C697.095,241.438,697.251,241.418,697.251,241.407c0-0.012-0.157-0.016-0.463-0.012c-0.342,0.009-0.793,0.02-1.362,0.035
								c-0.304,0.01-0.639,0.022-1.005,0.034c-0.369,0.03-0.768,0.1-1.203,0.157c-0.869,0.12-1.878,0.234-2.977,0.55
								c-2.231,0.476-4.873,1.488-7.681,3.11c-2.796,1.635-5.724,4.01-8.217,7.265c-2.47,3.243-4.578,7.354-5.444,12.112
								c-0.835,4.725-0.707,10.069,1.213,15.171c0.413,1.297,1.049,2.519,1.649,3.773c0.714,1.19,1.375,2.441,2.27,3.549
								c0.805,1.176,1.812,2.207,2.783,3.284c1.074,0.975,2.127,1.997,3.348,2.838c2.388,1.724,5.044,3.229,7.966,4.141
								c2.904,0.945,5.99,1.453,9.128,1.493c3.137-0.041,6.221-0.55,9.124-1.495c2.921-0.913,5.576-2.417,7.963-4.141
								c1.22-0.841,2.273-1.863,3.347-2.838c0.971-1.077,1.977-2.107,2.782-3.283c0.895-1.108,1.556-2.359,2.269-3.549
								c0.599-1.254,1.236-2.475,1.648-3.773c1.92-5.101,2.048-10.444,1.213-15.169c-0.864-4.758-2.973-8.868-5.443-12.112
								c-2.493-3.255-5.421-5.631-8.217-7.266c-2.808-1.622-5.451-2.634-7.682-3.11c-1.099-0.316-2.108-0.43-2.977-0.55
								c-0.435-0.056-0.834-0.126-1.203-0.157c-0.366-0.012-0.701-0.024-1.005-0.034c-0.57-0.015-1.02-0.026-1.362-0.035
								C697.408,241.391,697.251,241.395,697.251,241.407z"/>
						</g>
					</g>
				</g>
			</g>
			<g>
				<g>
					<path style="fill:#FFFFFF;" d="M677.017,231.4c-2.665,0-4.825,2.16-4.825,4.825c0,2.665,2.16,4.825,4.825,4.825
						c2.665,0,4.825-2.16,4.825-4.825C681.842,233.56,679.682,231.4,677.017,231.4z"/>
				</g>
				<g>
					<g>
						<path style="fill:#E0E0E0;" d="M677.017,231.4c-0.002,0.062,0.429,0.067,1.145,0.281c0.703,0.211,1.722,0.709,2.497,1.772
							c0.777,1.028,1.2,2.701,0.592,4.308c-0.559,1.594-2.256,2.963-4.233,2.946c-1.978,0.018-3.676-1.352-4.235-2.946
							c-0.608-1.607-0.185-3.28,0.592-4.308c0.774-1.063,1.794-1.561,2.497-1.772C676.588,231.466,677.019,231.462,677.017,231.4
							c0.003-0.031-0.432-0.122-1.211,0.021c-0.762,0.142-1.908,0.601-2.818,1.737c-0.911,1.096-1.46,2.969-0.801,4.818
							c0.599,1.832,2.545,3.439,4.83,3.417c2.284,0.021,4.229-1.585,4.828-3.417c0.659-1.849,0.11-3.722-0.801-4.818
							c-0.91-1.136-2.056-1.595-2.818-1.737C677.449,231.278,677.014,231.368,677.017,231.4z"/>
					</g>
				</g>
			</g>
		</g>
		<g>
			<g>
				<g>
					<path style="fill:#E0E0E0;" d="M696.87,283.183c-2.33,0-3.929-1.634-3.929-3.651c0-2.052,1.6-3.581,3.929-3.581
						c2.33,0,3.964,1.53,3.964,3.581C700.834,281.548,699.199,283.183,696.87,283.183z M699.512,274.003h-5.251l-1.321-15.474h7.859
						L699.512,274.003z"/>
				</g>
			</g>
		</g>
	</g>
	<g>
		<g>
			<path style="fill:#EBEBEB;" d="M49.067,296.697c19.763,7.936,43.278,5.803,61.291-5.559
				C91.867,286.178,65.53,286.926,49.067,296.697z"/>
		</g>
		<g>
			<path style="fill:#EBEBEB;" d="M38.013,278.769c16.868,6.773,36.937,4.953,52.311-4.745
				C74.542,269.791,52.064,270.43,38.013,278.769z"/>
		</g>
		<g>
			<path style="fill:#EBEBEB;" d="M30.786,262.425c13.51,5.424,29.583,3.967,41.896-3.8
				C60.042,255.234,42.039,255.746,30.786,262.425z"/>
		</g>
		<g>
			<path style="fill:#EBEBEB;" d="M107.762,231.623c9.814,19.227,9.806,43.159-0.021,62.38
				C101.046,275.789,99.4,249.134,107.762,231.623z"/>
		</g>
		<g>
			<path style="fill:#EBEBEB;" d="M88.655,222.1c8.376,16.41,8.369,36.836-0.018,53.24C82.924,259.794,81.518,237.045,88.655,222.1z
				"/>
		</g>
		<g>
			<path style="fill:#EBEBEB;" d="M71.496,216.295c6.708,13.143,6.703,29.502-0.014,42.64
				C66.906,246.485,65.781,228.265,71.496,216.295z"/>
		</g>
		<g>
			<path style="fill:#EBEBEB;" d="M24.352,218.513c6.521,15.066,24.414,29.879,40.443,33.426
				C56.939,234.384,41.503,220.894,24.352,218.513z"/>
		</g>
		<g>
			<g>
				<path style="fill:#EBEBEB;" d="M134.477,316.06c-0.318,0.349-18.049-15.333-39.596-35.022
					c-21.555-19.695-38.765-35.938-38.446-36.287c0.318-0.348,18.045,15.33,39.6,35.025
					C117.582,299.465,134.796,315.712,134.477,316.06z"/>
			</g>
		</g>
	</g>
	<g>
		<g>
			<path style="fill:#EBEBEB;" d="M514.3,139.509c-4.307,25.597,4.35,53.04,22.566,71.532
				C537.962,187.734,530.218,156.569,514.3,139.509z"/>
		</g>
		<g>
			<path style="fill:#EBEBEB;" d="M532.771,121.683c-3.676,21.846,3.713,45.269,19.26,61.051
				C552.966,162.842,546.357,136.244,532.771,121.683z"/>
		</g>
		<g>
			<path style="fill:#EBEBEB;" d="M550.352,108.825c-2.944,17.497,2.974,36.256,15.425,48.897
				C566.526,141.79,561.232,120.487,550.352,108.825z"/>
		</g>
		<g>
			<path style="fill:#EBEBEB;" d="M607.055,192.465c-20.34,16.687-48.838,22.904-74.28,16.204
				C552.719,195.96,584.029,187.064,607.055,192.465z"/>
		</g>
		<g>
			<path style="fill:#EBEBEB;" d="M613.422,167.238c-17.36,14.242-41.682,19.548-63.396,13.83
				C567.049,170.221,593.771,162.628,613.422,167.238z"/>
		</g>
		<g>
			<path style="fill:#EBEBEB;" d="M615.87,145.297c-13.904,11.407-33.384,15.657-50.775,11.077
				C578.729,147.686,600.131,141.605,615.87,145.297z"/>
		</g>
		<g>
			<path style="fill:#EBEBEB;" d="M600.963,89.74c-16.242,11.684-29.225,36.844-29.278,56.852
				C590.544,132.67,602.59,110.781,600.963,89.74z"/>
		</g>
		<g>
			<g>
				<path style="fill:#EBEBEB;" d="M513.467,246.244c-0.498-0.289,13.561-25.479,31.398-56.258
					c17.842-30.789,32.706-55.507,33.204-55.218c0.497,0.288-13.558,25.474-31.401,56.263
					C528.831,221.809,513.965,246.532,513.467,246.244z"/>
			</g>
		</g>
	</g>
	<g>
		<g>
			<path style="fill:#EBEBEB;" d="M615.018,374.202c-18.792-8.427-41.595-7.27-59.438,3.016
				C573.256,382.722,598.734,383.011,615.018,374.202z"/>
		</g>
		<g>
			<path style="fill:#EBEBEB;" d="M625.009,391.95c-16.039-7.193-35.501-6.205-50.728,2.575
				C589.367,399.222,611.112,399.469,625.009,391.95z"/>
		</g>
		<g>
			<path style="fill:#EBEBEB;" d="M631.365,408.021c-12.845-5.761-28.433-4.97-40.629,2.062
				C602.819,413.845,620.234,414.042,631.365,408.021z"/>
		</g>
		<g>
			<path style="fill:#EBEBEB;" d="M555.802,434.826c-8.744-18.956-7.816-42.08,2.417-60.275
				C563.988,392.408,564.555,418.227,555.802,434.826z"/>
		</g>
		<g>
			<path style="fill:#EBEBEB;" d="M573.898,444.762c-7.463-16.178-6.671-35.914,2.063-51.443
				C580.885,408.559,581.368,430.595,573.898,444.762z"/>
		</g>
		<g>
			<path style="fill:#EBEBEB;" d="M590.255,451.03c-5.977-12.957-5.343-28.764,1.653-41.201
				C595.85,422.035,596.238,439.684,590.255,451.03z"/>
		</g>
		<g>
			<path style="fill:#EBEBEB;" d="M635.894,450.699c-5.722-14.808-22.443-29.81-37.794-33.853
				C605.016,434.111,619.413,447.739,635.894,450.699z"/>
		</g>
		<g>
			<g>
				<path style="fill:#EBEBEB;" d="M533.232,352.21c0.321-0.325,16.85,15.509,36.915,35.362
					c20.071,19.859,36.076,36.216,35.755,36.54c-0.321,0.324-16.847-15.506-36.918-35.365
					C548.92,368.895,532.911,352.534,533.232,352.21z"/>
			</g>
		</g>
	</g>
	<rect x="158.348" y="24.173" style="fill:#FAFAFA;" width="409.378" height="449.444"/>
	<g>
		<g>
			<g>
				<g>
					<g>
						
							<ellipse transform="matrix(0.9553 -0.2955 0.2955 0.9553 -24.2112 28.1578)" style="fill:#FFFFFF;" cx="81.041" cy="94.17" rx="31.253" ry="31.253"/>
					</g>
					<g>
						<g>
							<path style="fill:#E0E0E0;" d="M81.041,62.917c0,0.013,0.171,0.034,0.506,0.064c0.372,0.028,0.862,0.065,1.482,0.112
								c0.329,0.022,0.693,0.047,1.09,0.073c0.399,0.045,0.832,0.133,1.302,0.206c0.94,0.154,2.031,0.3,3.216,0.664
								c2.406,0.559,5.248,1.695,8.257,3.479c2.997,1.798,6.125,4.387,8.779,7.907c2.628,3.509,4.862,7.933,5.762,13.037
								c0.868,5.07,0.707,10.791-1.365,16.239c-0.445,1.386-1.131,2.689-1.774,4.029c-0.768,1.269-1.475,2.606-2.436,3.787
								c-0.862,1.256-1.942,2.353-2.98,3.503c-1.15,1.038-2.276,2.13-3.581,3.025c-2.553,1.838-5.39,3.442-8.509,4.413
								c-3.1,1.006-6.392,1.548-9.742,1.593c-3.352-0.045-6.645-0.585-9.746-1.591c-3.12-0.97-5.957-2.575-8.512-4.413
								c-1.306-0.895-2.432-1.987-3.583-3.026c-1.039-1.15-2.118-2.248-2.981-3.503c-0.961-1.181-1.669-2.518-2.437-3.787
								c-0.643-1.34-1.33-2.643-1.774-4.03c-2.072-5.448-2.233-11.17-1.365-16.24c0.9-5.105,3.134-9.529,5.763-13.038
								c2.653-3.52,5.782-6.108,8.779-7.906c3.01-1.784,5.851-2.92,8.257-3.478c1.185-0.364,2.275-0.51,3.215-0.664
								c0.47-0.073,0.903-0.161,1.302-0.206c0.397-0.027,0.761-0.051,1.09-0.073c0.619-0.047,1.109-0.084,1.481-0.112
								C80.87,62.951,81.041,62.93,81.041,62.917c0-0.013-0.171-0.017-0.507-0.013c-0.375,0.01-0.867,0.022-1.49,0.038
								c-0.332,0.011-0.698,0.024-1.099,0.037c-0.403,0.033-0.84,0.11-1.315,0.172c-0.95,0.131-2.054,0.256-3.255,0.601
								c-2.439,0.521-5.329,1.628-8.4,3.401c-3.058,1.788-6.26,4.386-8.987,7.945c-2.701,3.547-5.007,8.042-5.953,13.245
								c-0.913,5.167-0.773,11.011,1.327,16.591c0.451,1.419,1.147,2.755,1.803,4.127c0.78,1.301,1.503,2.67,2.483,3.881
								c0.881,1.286,1.981,2.413,3.043,3.591c1.174,1.067,2.326,2.184,3.661,3.104c2.611,1.886,5.516,3.531,8.712,4.529
								c3.176,1.034,6.55,1.589,9.982,1.633c3.431-0.045,6.804-0.601,9.978-1.635c3.194-0.998,6.098-2.643,8.709-4.529
								c1.334-0.919,2.486-2.037,3.66-3.104c1.062-1.178,2.162-2.305,3.043-3.591c0.979-1.212,1.702-2.58,2.482-3.881
								c0.656-1.372,1.351-2.707,1.803-4.126c2.099-5.579,2.24-11.422,1.327-16.589c-0.945-5.203-3.251-9.698-5.952-13.245
								c-2.726-3.559-5.928-6.158-8.986-7.946c-3.071-1.774-5.961-2.881-8.401-3.402c-1.202-0.345-2.305-0.47-3.256-0.602
								c-0.476-0.062-0.912-0.138-1.315-0.172c-0.401-0.014-0.767-0.026-1.099-0.037c-0.623-0.016-1.115-0.028-1.49-0.038
								C81.213,62.9,81.041,62.904,81.041,62.917z"/>
						</g>
					</g>
				</g>
			</g>
			<g>
				<g>
					<path style="fill:#FFFFFF;" d="M104.663,125.11c-2.914,0-5.277,2.363-5.277,5.277s2.362,5.277,5.277,5.277
						c2.914,0,5.277-2.363,5.277-5.277S107.577,125.11,104.663,125.11z"/>
				</g>
				<g>
					<g>
						<path style="fill:#E0E0E0;" d="M104.663,125.11c-0.002,0.068,0.47,0.073,1.253,0.307c0.769,0.231,1.883,0.775,2.73,1.938
							c0.85,1.124,1.312,2.953,0.647,4.711c-0.611,1.743-2.467,3.24-4.63,3.221c-2.163,0.02-4.02-1.478-4.631-3.221
							c-0.665-1.758-0.202-3.587,0.647-4.711c0.847-1.163,1.961-1.707,2.73-1.938C104.193,125.183,104.665,125.178,104.663,125.11
							c0.003-0.035-0.472-0.133-1.324,0.023c-0.833,0.155-2.086,0.658-3.081,1.899c-0.996,1.198-1.597,3.247-0.876,5.269
							c0.655,2.004,2.784,3.761,5.282,3.737c2.498,0.024,4.625-1.733,5.28-3.737c0.721-2.022,0.12-4.07-0.876-5.269
							c-0.995-1.242-2.248-1.744-3.082-1.9C105.135,124.977,104.66,125.076,104.663,125.11z"/>
					</g>
				</g>
			</g>
		</g>
		<g>
			<g>
				<g>
					<path style="fill:#E0E0E0;" d="M81.746,108.423c-2.548,0-4.297-1.787-4.297-3.993c0-2.244,1.749-3.916,4.297-3.916
						c2.548,0,4.335,1.673,4.335,3.916C86.082,106.635,84.294,108.423,81.746,108.423z M84.636,98.384h-5.742l-1.445-16.923h8.594
						L84.636,98.384z"/>
				</g>
			</g>
		</g>
	</g>
</g>
<g id="Background_Simple" style="display:none;">
	<path style="display:inline;fill:#F5F5F5;" d="M494.236,162.762l-1.847-3.044c-15.57-25.657-43.72-41.124-73.4-39.247
		c-3.815,0.241-7.614,0.758-11.362,1.56c-26.985,5.776-50.465,26.183-60.198,52.317c-5.724,15.37-7.323,33.067-18.185,45.267
		c-14.136,15.878-38.136,16.376-59.237,15.719c-21.101-0.658-45.117-0.097-59.184,15.844c-8.81,9.983-11.61,24.18-10.9,37.55
		c1.881,35.397,26.546,67.047,57.913,82.778c31.368,15.732,68.299,17.141,102.63,10.22c48.092-9.694,93.827-36.318,121.318-77.439
		C509.274,263.166,516.231,207.144,494.236,162.762z"/>
</g>
<g id="Bricks">
	<g>
		<g>
			<rect x="222.923" y="232.715" style="fill:#E0E0E0;" width="53.993" height="14.284"/>
		</g>
		<g>
			<g>
				<path style="fill:#263238;" d="M254.086,262.044c-0.006-0.006-0.011-0.093-0.017-0.26c-0.005-0.191-0.01-0.432-0.018-0.733
					c-0.01-0.672-0.023-1.609-0.04-2.811c-0.022-2.466-0.053-6.011-0.093-10.48l0.167,0.167c-12.328,0.025-31.935,0.064-53.99,0.108
					c0.122-0.123-0.277,0.274,0.272-0.275v0.003v0.007v0.014v0.029v0.057v0.115v0.23l0,0.459v0.916c0,0.609,0,1.217,0,1.822
					c0,1.211-0.001,2.412-0.001,3.605c-0.002,2.384-0.003,4.729-0.005,7.026l-0.269-0.269c15.375,0.049,28.828,0.091,38.477,0.122
					c4.806,0.033,8.663,0.059,11.357,0.077c1.31,0.015,2.337,0.027,3.071,0.035c0.331,0.007,0.595,0.013,0.803,0.017
					C253.984,262.033,254.08,262.038,254.086,262.044c0.006,0.006-0.079,0.011-0.25,0.017c-0.2,0.004-0.453,0.01-0.77,0.017
					c-0.721,0.008-1.727,0.02-3.013,0.035c-2.679,0.018-6.515,0.044-11.295,0.077c-9.696,0.031-23.215,0.073-38.665,0.122
					l-0.269,0.001l0-0.27c-0.002-2.297-0.003-4.642-0.005-7.026c0-1.192-0.001-2.394-0.001-3.605c0-0.605,0-1.213,0-1.822l0-0.916
					v-0.459v-0.23v-0.115v-0.057v-0.029v-0.014v-0.007v-0.003c0.55-0.551,0.155-0.153,0.278-0.275
					c22.055,0.044,41.662,0.083,53.99,0.108l0.169,0l-0.001,0.167c-0.04,4.512-0.071,8.091-0.093,10.58
					c-0.017,1.186-0.031,2.11-0.041,2.774c-0.007,0.288-0.013,0.52-0.018,0.703C254.097,261.973,254.091,262.05,254.086,262.044z"/>
			</g>
		</g>
	</g>
	<g>
		<g>
			<rect x="468.812" y="377.737" style="fill:#E0E0E0;" width="53.993" height="14.284"/>
		</g>
		<g>
			<rect x="294.552" y="340.991" style="fill:#EBEBEB;" width="53.993" height="14.284"/>
		</g>
		<g>
			<g>
				<path style="fill:#263238;" d="M499.974,407.066c-0.006-0.006-0.011-0.093-0.017-0.259c-0.005-0.191-0.01-0.432-0.018-0.733
					c-0.01-0.672-0.023-1.609-0.04-2.811c-0.022-2.466-0.053-6.011-0.092-10.48l0.167,0.167c-12.328,0.025-31.934,0.064-53.99,0.108
					c0.122-0.122-0.277,0.275,0.272-0.275v0.004v0.007v0.014v0.029v0.057v0.115v0.23l0,0.459v0.916c0,0.609,0,1.217,0,1.822
					c0,1.211-0.001,2.413-0.001,3.605c-0.001,2.384-0.003,4.729-0.004,7.026l-0.269-0.269c15.375,0.049,28.828,0.092,38.477,0.122
					c4.806,0.032,8.663,0.058,11.357,0.077c1.31,0.015,2.337,0.027,3.071,0.035c0.331,0.007,0.595,0.013,0.803,0.017
					C499.872,407.054,499.968,407.06,499.974,407.066c0.006,0.006-0.079,0.012-0.25,0.017c-0.2,0.004-0.453,0.01-0.77,0.017
					c-0.72,0.008-1.727,0.02-3.013,0.035c-2.679,0.018-6.515,0.044-11.295,0.077c-9.696,0.031-23.215,0.073-38.665,0.122
					l-0.269,0.001l0-0.27c-0.001-2.297-0.003-4.642-0.004-7.026c0-1.192-0.001-2.394-0.001-3.605c0-0.605,0-1.213,0-1.822l0-0.916
					v-0.459v-0.23v-0.115v-0.057v-0.029v-0.014v-0.007v-0.004c0.551-0.551,0.155-0.153,0.279-0.275
					c22.055,0.044,41.662,0.083,53.99,0.108l0.169,0l-0.001,0.167c-0.039,4.512-0.071,8.091-0.093,10.58
					c-0.017,1.186-0.031,2.11-0.041,2.773c-0.007,0.289-0.013,0.52-0.018,0.703C499.985,406.995,499.979,407.071,499.974,407.066z"
					/>
			</g>
		</g>
	</g>
	<g>
		<g>
			<rect x="294.552" y="120.077" style="fill:#E0E0E0;" width="53.993" height="14.284"/>
		</g>
		<g>
			<rect x="196.096" y="59.998" style="fill:#EBEBEB;" width="53.993" height="14.284"/>
		</g>
		<g>
			<g>
				<path style="fill:#263238;" d="M325.715,149.406c-0.006-0.006-0.011-0.093-0.017-0.26c-0.005-0.191-0.01-0.432-0.018-0.733
					c-0.01-0.672-0.023-1.61-0.041-2.811c-0.022-2.466-0.053-6.011-0.092-10.48l0.167,0.167c-12.328,0.025-31.934,0.064-53.99,0.108
					c0.122-0.122-0.277,0.274,0.272-0.275v0.003v0.007v0.014v0.029v0.058v0.115v0.23l0,0.459v0.916c0,0.609,0,1.217,0,1.822
					c0,1.211-0.001,2.412-0.001,3.605c-0.001,2.384-0.003,4.729-0.005,7.026l-0.269-0.269c15.375,0.049,28.828,0.092,38.477,0.122
					c4.806,0.032,8.663,0.059,11.357,0.077c1.31,0.015,2.337,0.027,3.071,0.035c0.331,0.007,0.595,0.013,0.803,0.017
					C325.613,149.394,325.709,149.4,325.715,149.406c0.006,0.006-0.079,0.012-0.25,0.017c-0.2,0.004-0.453,0.01-0.77,0.017
					c-0.72,0.008-1.727,0.02-3.013,0.035c-2.679,0.018-6.515,0.044-11.295,0.077c-9.696,0.031-23.215,0.074-38.665,0.122
					l-0.269,0.001l0-0.27c-0.002-2.297-0.003-4.642-0.005-7.026c0-1.192-0.001-2.394-0.001-3.605c0-0.605,0-1.213,0-1.822l0-0.916
					v-0.459v-0.23v-0.115v-0.058v-0.029v-0.014v-0.007v-0.003c0.55-0.551,0.155-0.153,0.278-0.276
					c22.055,0.044,41.662,0.083,53.99,0.108l0.169,0l-0.001,0.167c-0.039,4.512-0.071,8.091-0.093,10.58
					c-0.017,1.186-0.031,2.11-0.041,2.773c-0.007,0.289-0.013,0.52-0.017,0.703C325.726,149.335,325.72,149.411,325.715,149.406z"/>
			</g>
		</g>
	</g>
	<g>
		<g>
			<g>
				<path style="fill:#263238;" d="M512.738,169.276c-0.006-0.006-0.011-0.093-0.017-0.259c-0.005-0.191-0.01-0.432-0.018-0.733
					c-0.01-0.672-0.023-1.609-0.041-2.811c-0.022-2.466-0.053-6.011-0.093-10.48l0.167,0.167
					c-12.328,0.024-31.934,0.064-53.99,0.108c0.122-0.122-0.278,0.274,0.272-0.275v0.004v0.007v0.014v0.029v0.058v0.115l0,0.23
					v0.459v0.916c0,0.61,0,1.217,0,1.822c0,1.211-0.001,2.413-0.001,3.605c-0.002,2.384-0.003,4.729-0.005,7.026l-0.269-0.269
					c15.375,0.049,28.828,0.092,38.477,0.122c4.806,0.033,8.663,0.059,11.357,0.077c1.311,0.015,2.337,0.027,3.071,0.035
					c0.331,0.007,0.595,0.013,0.803,0.017C512.636,169.264,512.732,169.27,512.738,169.276c0.006,0.006-0.079,0.012-0.25,0.017
					c-0.2,0.005-0.453,0.01-0.77,0.017c-0.721,0.008-1.727,0.02-3.013,0.035c-2.679,0.018-6.515,0.044-11.295,0.077
					c-9.696,0.031-23.215,0.074-38.665,0.122l-0.269,0.001l0-0.27c-0.001-2.297-0.003-4.642-0.005-7.026
					c0-1.192-0.001-2.394-0.001-3.605c0-0.605,0-1.213,0-1.822l0-0.916v-0.459v-0.23v-0.115v-0.058v-0.029v-0.014v-0.007v-0.004
					c0.55-0.55,0.155-0.152,0.279-0.275c22.055,0.044,41.662,0.083,53.99,0.108l0.169,0l-0.001,0.167
					c-0.04,4.512-0.071,8.091-0.093,10.58c-0.017,1.186-0.031,2.11-0.041,2.773c-0.007,0.289-0.013,0.52-0.018,0.704
					C512.749,169.205,512.744,169.282,512.738,169.276z"/>
			</g>
		</g>
		<g>
			<g>
				<path style="fill:#263238;" d="M520.059,154.992c-0.007-0.007-0.014-0.099-0.021-0.272c-0.006-0.205-0.013-0.453-0.021-0.757
					c-0.012-0.703-0.029-1.658-0.049-2.864c-0.026-2.505-0.062-6.042-0.107-10.391l0.198,0.198
					c-8.404,0.02-19.838,0.047-32.439,0.077c-0.247,0.246,0.332-0.335,0.273-0.274v0.004v0.007v0.015v0.029v0.059v0.117l0,0.235
					v0.469l0,0.934c0,0.621,0,1.238-0.001,1.852c-0.001,1.228-0.002,2.441-0.003,3.636c-0.003,2.389-0.007,4.706-0.01,6.926
					l-0.262-0.262c9.365,0.05,17.428,0.093,23.206,0.124c2.85,0.03,5.134,0.055,6.76,0.072c0.759,0.014,1.364,0.025,1.823,0.033
					C519.826,154.971,520.048,154.981,520.059,154.992c0.011,0.011-0.191,0.021-0.589,0.032c-0.445,0.008-1.032,0.019-1.769,0.033
					c-1.612,0.017-3.875,0.042-6.7,0.072c-5.823,0.031-13.947,0.074-23.383,0.124l-0.262,0.001l0-0.263
					c-0.003-2.219-0.006-4.536-0.01-6.926c-0.001-1.195-0.002-2.408-0.003-3.636c0-0.614,0-1.232-0.001-1.852l0-0.934v-0.469v-0.235
					v-0.117v-0.059v-0.029v-0.015v-0.007v-0.004c-0.06,0.058,0.522-0.522,0.277-0.276c12.601,0.03,24.034,0.057,32.439,0.077
					l0.2,0.001l-0.002,0.197c-0.045,4.4-0.081,7.978-0.106,10.511c-0.021,1.187-0.037,2.128-0.049,2.82
					C520.086,154.678,520.073,155.006,520.059,154.992z"/>
			</g>
		</g>
	</g>
	<g>
		<g>
			<g>
				<path style="fill:#263238;" d="M445.537,279.709c-0.005-0.006-0.011-0.093-0.017-0.26c-0.004-0.191-0.01-0.432-0.017-0.733
					c-0.01-0.672-0.023-1.609-0.041-2.811c-0.022-2.466-0.053-6.011-0.092-10.48l0.167,0.167
					c-12.328,0.025-31.934,0.064-53.99,0.108c0.122-0.123-0.277,0.274,0.272-0.275v0.003v0.007v0.014v0.029v0.057v0.115l0,0.23
					v0.459v0.916c0,0.609,0,1.217,0,1.822c-0.001,1.211-0.001,2.413-0.001,3.605c-0.001,2.384-0.003,4.729-0.004,7.026l-0.269-0.269
					c15.375,0.049,28.828,0.092,38.477,0.122c4.806,0.033,8.663,0.059,11.357,0.077c1.31,0.015,2.337,0.027,3.071,0.035
					c0.331,0.007,0.595,0.013,0.803,0.017C445.435,279.697,445.531,279.703,445.537,279.709c0.006,0.006-0.079,0.012-0.25,0.017
					c-0.2,0.004-0.453,0.01-0.77,0.017c-0.72,0.008-1.727,0.02-3.013,0.035c-2.679,0.018-6.515,0.044-11.295,0.077
					c-9.696,0.031-23.215,0.073-38.665,0.122l-0.269,0.001l0-0.27c-0.001-2.297-0.003-4.642-0.005-7.026
					c0-1.192-0.001-2.394-0.001-3.605c0-0.605,0-1.213,0-1.822l0-0.916v-0.459v-0.23v-0.115v-0.057v-0.029v-0.014v-0.007v-0.003
					c0.55-0.551,0.155-0.153,0.278-0.276c22.055,0.044,41.662,0.083,53.99,0.108l0.169,0l-0.001,0.167
					c-0.04,4.512-0.071,8.091-0.093,10.58c-0.017,1.186-0.031,2.11-0.041,2.773c-0.007,0.289-0.013,0.52-0.017,0.703
					C445.548,279.638,445.542,279.715,445.537,279.709z"/>
			</g>
		</g>
	</g>
	<g>
		<g>
			<g>
				<path style="fill:#263238;" d="M477.765,67.155c-0.005-0.006-0.011-0.093-0.017-0.26c-0.005-0.191-0.01-0.432-0.018-0.733
					c-0.01-0.672-0.023-1.609-0.041-2.811c-0.022-2.466-0.053-6.011-0.092-10.48l0.167,0.167
					c-12.328,0.025-31.934,0.064-53.99,0.108c0.122-0.123-0.278,0.274,0.272-0.275v0.004v0.007v0.014v0.029v0.057v0.115l0,0.23
					v0.459v0.916c0,0.61,0,1.217,0,1.822c0,1.211-0.001,2.413-0.001,3.605c-0.001,2.384-0.003,4.729-0.004,7.026l-0.269-0.269
					c15.375,0.049,28.828,0.092,38.477,0.122c4.806,0.033,8.663,0.059,11.357,0.077c1.31,0.015,2.337,0.027,3.071,0.035
					c0.331,0.007,0.595,0.013,0.803,0.017C477.663,67.144,477.759,67.149,477.765,67.155c0.006,0.006-0.079,0.012-0.25,0.017
					c-0.2,0.004-0.453,0.01-0.77,0.017c-0.721,0.008-1.727,0.02-3.013,0.035c-2.679,0.018-6.515,0.044-11.295,0.077
					c-9.696,0.031-23.215,0.073-38.665,0.122l-0.269,0.001l0-0.27c-0.001-2.297-0.003-4.642-0.004-7.026
					c0-1.192-0.001-2.394-0.001-3.605c0-0.605,0-1.213,0-1.822l0-0.916v-0.459v-0.23v-0.115v-0.057v-0.029v-0.014v-0.007v-0.004
					c0.55-0.551,0.155-0.153,0.278-0.275c22.055,0.044,41.662,0.083,53.99,0.108l0.169,0l-0.001,0.167
					c-0.04,4.512-0.071,8.091-0.093,10.58c-0.017,1.186-0.031,2.11-0.041,2.773c-0.007,0.289-0.013,0.52-0.017,0.703
					C477.776,67.084,477.771,67.161,477.765,67.155z"/>
			</g>
		</g>
	</g>
	<g>
		<g>
			<g>
				<path style="fill:#263238;" d="M289.451,455.12c-0.006-0.006-0.011-0.093-0.017-0.259c-0.004-0.191-0.01-0.432-0.017-0.733
					c-0.01-0.672-0.023-1.609-0.041-2.811c-0.022-2.466-0.053-6.011-0.093-10.48l0.167,0.167
					c-12.328,0.025-31.934,0.064-53.99,0.108c0.122-0.122-0.277,0.274,0.272-0.275v0.004v0.007v0.014v0.029v0.057v0.115l0,0.23
					v0.459v0.916c0,0.609,0,1.217,0,1.822c-0.001,1.211-0.001,2.413-0.001,3.605c-0.002,2.384-0.003,4.729-0.005,7.026l-0.269-0.269
					c15.375,0.049,28.828,0.092,38.477,0.122c4.806,0.033,8.663,0.059,11.357,0.077c1.31,0.015,2.337,0.027,3.071,0.035
					c0.331,0.007,0.595,0.013,0.803,0.017C289.349,455.108,289.446,455.114,289.451,455.12c0.006,0.006-0.079,0.012-0.25,0.017
					c-0.2,0.004-0.453,0.01-0.77,0.017c-0.72,0.009-1.727,0.02-3.013,0.035c-2.679,0.018-6.515,0.044-11.295,0.077
					c-9.696,0.031-23.215,0.073-38.665,0.122l-0.269,0.001l0-0.27c-0.002-2.297-0.003-4.642-0.005-7.026
					c0-1.192-0.001-2.394-0.001-3.605c0-0.605,0-1.213,0-1.822l0-0.916v-0.459v-0.23v-0.115v-0.057v-0.029v-0.014v-0.007v-0.004
					c0.55-0.551,0.155-0.153,0.278-0.275c22.055,0.044,41.662,0.083,53.99,0.108l0.169,0l-0.001,0.167
					c-0.04,4.512-0.071,8.091-0.092,10.58c-0.018,1.185-0.031,2.11-0.041,2.773c-0.007,0.289-0.013,0.52-0.018,0.703
					C289.462,455.049,289.457,455.126,289.451,455.12z"/>
			</g>
		</g>
	</g>
</g>
<g id="Character_1">
	<g>
		<g>
			<g>
				<g>
					<path style="fill:#263238;" d="M153.213,183.472l-19.917,24.694c4.459,6.699,8.919,13.397,13.378,20.096
						C155.119,215.192,157.569,198.41,153.213,183.472z"/>
					<g>
						<path style="fill:#263238;" d="M84.296,154.524c5.612-5.282,13.382-7.856,21.076-8.298c7.694-0.442,15.37,1.092,22.798,3.144
							c4.168,1.151,8.379,2.513,11.836,5.11c6.309,4.74,13.344,11.066,15.325,18.705c3.916,15.105,1.992,30.477,0.313,34.716
							c-2.157,5.444-8.356,8.393-13.548,11.1l-66.035-45.725C76.144,166.262,79.188,159.331,84.296,154.524z"/>
					</g>
					<g>
						<path style="fill:#263238;" d="M77.632,164.75l11.581-5.339c-2.518,17.545,5.108,54.179,5.668,71.896
							c-6.171-5.33-21.728-22.409-23.223-30.425C70.163,192.866,62.848,167.17,77.632,164.75z"/>
					</g>
					<g>
						<path style="fill:#FFBF9D;" d="M77.406,192.342c-2.371-12.341,1.826-29.318,14.257-31.163l29.836-0.155
							c9.572-0.05,17.528,5.969,20.59,15.038c0.153,0.452,0.053-0.121,0.135,0.227l3.962,26.81l11.138,43.014
							c-1.64,12.275-17.911,20.003-33.692,26.964c-0.376-1.013-3.269-10.147-3.269-10.147s-4.094-15.96-4.088-15.929
							c0,0-20.427,2.485-28.869-16.927C83.207,220.42,80.04,206.053,77.406,192.342z"/>
					</g>
					<g>
						<path style="fill:#263238;" d="M91.497,205.553c0.306,1.384,1.729,2.265,3.18,1.973c1.447-0.293,2.377-1.648,2.071-3.032
							c-0.306-1.383-1.729-2.267-3.177-1.974C92.121,202.813,91.192,204.17,91.497,205.553z"/>
					</g>
					<g>
						<path style="fill:#263238;" d="M82.509,199.476c0.409,0.256,2-1.708,4.796-2.422c2.782-0.753,5.203,0.154,5.418-0.266
							c0.11-0.19-0.376-0.716-1.437-1.135c-1.046-0.42-2.707-0.663-4.445-0.206c-1.738,0.459-3.036,1.477-3.707,2.35
							C82.444,198.678,82.311,199.365,82.509,199.476z"/>
					</g>
					<g>
						<path style="fill:#263238;" d="M115.543,199.451c0.305,1.383,1.729,2.265,3.179,1.972c1.447-0.292,2.377-1.648,2.072-3.032
							c-0.306-1.383-1.73-2.266-3.178-1.974C116.165,196.71,115.237,198.067,115.543,199.451z"/>
					</g>
					<g>
						<path style="fill:#263238;" d="M109.022,192.566c0.41,0.255,2.004-1.709,4.797-2.423c2.782-0.753,5.203,0.154,5.418-0.266
							c0.109-0.189-0.373-0.717-1.437-1.135c-1.046-0.421-2.707-0.663-4.445-0.207c-1.737,0.46-3.035,1.478-3.708,2.351
							C108.96,191.766,108.826,192.455,109.022,192.566z"/>
					</g>
					<g>
						<path style="fill:#263238;" d="M106.009,216.767c-0.028-0.162-1.842-0.013-4.749,0.353c-0.732,0.11-1.443,0.143-1.689-0.312
							c-0.301-0.472-0.202-1.318-0.07-2.237c0.225-1.899,0.46-3.89,0.707-5.977c0.931-8.49,1.41-15.397,1.068-15.431
							c-0.342-0.035-1.376,6.819-2.308,15.309c-0.212,2.089-0.417,4.081-0.609,5.986c-0.061,0.88-0.287,1.92,0.353,2.895
							c0.33,0.484,0.953,0.735,1.442,0.74c0.493,0.022,0.896-0.075,1.255-0.145C104.28,217.37,106.04,216.929,106.009,216.767z"/>
					</g>
					<g>
						<path style="fill:#FF9A6C;" d="M141.259,232.814c0,0-2.962,15.611-23.71,18.949l-1.246-4.757
							C116.303,247.007,129.862,244.408,141.259,232.814z"/>
					</g>
					<g>
						<path style="fill:#263238;" d="M107.269,182.249c0.471,0.688,3.168-0.392,6.546-0.843c3.371-0.519,6.261-0.243,6.52-1.036
							c0.11-0.376-0.535-0.972-1.794-1.431c-1.249-0.461-3.119-0.722-5.143-0.433c-2.023,0.293-3.744,1.071-4.812,1.865
							C107.509,181.166,107.058,181.919,107.269,182.249z"/>
					</g>
					<g>
						<path style="fill:#263238;" d="M81.194,190.699c0.655,0.507,2.41-0.648,4.715-1.277c2.284-0.71,4.384-0.678,4.664-1.458
							c0.114-0.373-0.358-0.929-1.37-1.309c-0.998-0.38-2.536-0.505-4.114-0.046c-1.577,0.462-2.806,1.392-3.443,2.25
							C80.997,189.723,80.897,190.445,81.194,190.699z"/>
					</g>
					<g>
						<path style="fill:#263238;" d="M78.085,172.433c0.444-3.367,3.308-6.065,6.546-7.087c3.238-1.021,6.767-0.614,10.041,0.288
							c13.863,3.824,24.44,19.03,38.223,23.133c3.39,1.009,6.777-1.608,9.879,0.091c3.102,1.699,5.695,5.028,5.134,8.52
							c1.028-2.611,2.066-5.267,2.309-8.063c0.243-2.795-0.419-5.8-2.389-7.798c-1.496-1.516-3.669-2.404-4.69-4.273
							c-0.898-1.644-0.683-3.664-1.232-5.456c-0.558-1.824-1.871-3.308-3.198-4.678c-6.813-7.032-15.172-12.819-24.641-15.304
							c-6.187-1.624-12.821-1.788-18.951,0.036c-6.132,1.823-11.717,5.707-15.145,11.107
							C77.956,166.126,75.827,169.424,78.085,172.433"/>
					</g>
					<g>
						<g>
							<path style="fill:#FFBF9D;" d="M143.136,191.442c0.062-0.636,9.622-7.195,12.686,3.985
								c2.976,10.861-8.578,11.582-8.682,11.275C147.037,206.395,143.136,191.442,143.136,191.442z"/>
						</g>
					</g>
					<g>
						<g>
							<g>
								<path style="fill:#FF9A6C;" d="M149.379,201.676c0.039-0.047,0.225,0.081,0.585,0.141c0.35,0.059,0.914,0.012,1.423-0.354
									c1.034-0.732,1.507-2.817,1.03-4.791c-0.24-0.996-0.702-1.883-1.264-2.568c-0.548-0.706-1.212-1.122-1.818-1.068
									c-0.612,0.023-0.927,0.48-0.977,0.822c-0.063,0.343,0.064,0.541,0.012,0.576c-0.023,0.036-0.283-0.119-0.316-0.592
									c-0.014-0.228,0.044-0.519,0.243-0.797c0.204-0.283,0.558-0.495,0.972-0.56c0.854-0.169,1.817,0.398,2.435,1.15
									c0.664,0.743,1.207,1.733,1.476,2.852c0.523,2.209-0.044,4.563-1.491,5.442c-0.711,0.407-1.411,0.348-1.81,0.181
									C149.47,201.934,149.347,201.706,149.379,201.676z"/>
							</g>
						</g>
					</g>
					<g>
						<path style="fill:#455A64;" d="M146.012,184.712c-0.005,0.017-0.264-0.05-0.754-0.195c-0.486-0.157-1.221-0.342-2.13-0.685
							c-1.81-0.704-4.377-1.898-7.279-3.821c-2.912-1.906-6.122-4.527-9.63-7.471c-3.511-2.934-7.372-6.189-11.911-8.854
							c-2.292-1.282-4.63-2.361-6.997-3.073c-2.365-0.724-4.742-1.091-7.01-1.211c-4.548-0.257-8.654,0.498-11.913,1.591
							c-3.278,1.077-5.73,2.472-7.337,3.531c-0.825,0.505-1.408,0.979-1.823,1.274c-0.412,0.3-0.635,0.451-0.646,0.438
							c-0.012-0.014,0.189-0.192,0.582-0.519c0.396-0.322,0.963-0.824,1.776-1.359c1.584-1.118,4.032-2.575,7.333-3.71
							c3.281-1.149,7.436-1.954,12.054-1.72c2.304,0.108,4.721,0.471,7.129,1.201c2.413,0.719,4.789,1.811,7.11,3.11
							c4.594,2.698,8.466,5.983,11.959,8.936c3.492,2.965,6.662,5.6,9.528,7.531c2.855,1.948,5.373,3.18,7.15,3.937
							c0.892,0.369,1.613,0.584,2.087,0.772C145.768,184.593,146.017,184.695,146.012,184.712z"/>
					</g>
					<g>
						<path style="fill:#263238;" d="M144.075,188.509c0.946,2.931,1.903,6.038,1.217,9.042c-0.686,3.003-3.685,5.706-6.658,4.902
							c-2.426-0.656-3.762-3.195-4.747-5.507c-2.842-6.671-5.144-13.564-8.044-20.21L144.075,188.509z"/>
					</g>
					<g>
						<path style="fill:#455A64;" d="M79.417,166.55c0.028,0.06,0.916-0.433,2.647-0.943c1.724-0.499,4.349-0.938,7.555-0.562
							c1.597,0.187,3.334,0.535,5.124,1.149c1.792,0.611,3.665,1.415,5.588,2.344c3.83,1.886,7.915,4.291,11.689,7.458
							c1.89,1.583,3.638,3.262,5.448,4.766c1.8,1.514,3.701,2.809,5.649,3.774c3.885,1.927,7.651,3.005,10.814,3.76
							c3.173,0.747,5.772,1.172,7.566,1.466c0.844,0.125,1.529,0.227,2.071,0.308c0.474,0.063,0.726,0.085,0.729,0.064
							c0.003-0.022-0.24-0.086-0.708-0.189c-0.535-0.111-1.214-0.252-2.049-0.425c-1.778-0.369-4.362-0.86-7.502-1.658
							c-3.132-0.806-6.848-1.921-10.658-3.847c-1.897-0.958-3.742-2.227-5.515-3.729c-1.782-1.491-3.527-3.173-5.438-4.775
							c-3.83-3.213-7.961-5.623-11.842-7.499c-1.951-0.924-3.844-1.716-5.677-2.317c-1.833-0.605-3.612-0.934-5.243-1.096
							c-3.276-0.326-5.946,0.192-7.673,0.772c-0.869,0.288-1.518,0.583-1.943,0.806C79.624,166.404,79.407,166.531,79.417,166.55z"
							/>
					</g>
					<g>
						<path style="fill:#455A64;" d="M141.402,180.673c-0.009,0.037,0.391,0.176,1.133,0.399c0.861,0.244,1.921,0.544,3.182,0.901
							c0.343,0.093,0.699,0.19,1.068,0.291c0.396,0.1,0.822,0.167,1.296,0.084c0.231-0.046,0.497-0.138,0.692-0.366
							c0.196-0.222,0.277-0.534,0.221-0.825c-0.127-0.579-0.543-0.919-0.874-1.244c-1.392-1.317-2.919-2.76-4.54-4.293l-0.327,0.514
							c1.218,0.491,2.566,0.785,3.957,0.834c1.396,0.05,2.766-0.15,4.019-0.557c0.309-0.092,0.65-0.226,0.945-0.427
							c0.289-0.195,0.603-0.509,0.654-0.957c0.058-0.44-0.209-0.841-0.47-1.053c-0.263-0.231-0.551-0.376-0.799-0.52
							c-2.028-1.144-3.672-2.479-4.93-3.713c-2.517-2.491-3.565-4.474-3.668-4.403c-0.032,0.018,0.198,0.524,0.726,1.377
							c0.535,0.846,1.377,2.042,2.624,3.34c1.242,1.299,2.894,2.702,4.959,3.905c0.507,0.279,1.025,0.617,0.958,1.001
							c-0.04,0.377-0.616,0.708-1.187,0.861c-1.187,0.378-2.485,0.562-3.808,0.515c-1.318-0.046-2.594-0.32-3.749-0.777
							l-1.549-0.613l1.222,1.127c1.641,1.512,3.185,2.937,4.594,4.236c0.35,0.311,0.674,0.625,0.741,0.943
							c0.067,0.313-0.15,0.564-0.506,0.628c-0.716,0.148-1.48-0.166-2.169-0.297c-1.28-0.286-2.354-0.526-3.227-0.721
							C141.831,180.704,141.412,180.636,141.402,180.673z"/>
					</g>
					<g>
						<g>
							<g>
								<g>
									<g>
										<g>
											<g>
												<g>
													<path style="fill:#FF9A6C;" d="M109.808,221.441c0.687-1.489,2.235-2.575,3.971-2.782
														c1.204-0.144,2.518,0.142,3.447,0.921c0.928,0.778,1.381,2.081,0.936,3.127c-0.501,1.178-1.976,1.76-3.351,1.694
														c-1.376-0.066-2.678-0.65-3.924-1.242c-0.345-0.164-0.698-0.337-0.953-0.612c-0.254-0.275-0.387-0.679-0.221-0.992"/>
												</g>
											</g>
										</g>
									</g>
								</g>
							</g>
						</g>
					</g>
					<g>
						<g>
							<g>
								<g>
									<g>
										<g>
											<g>
												<g>
													<g>
														<path style="fill:#263238;" d="M115.595,215.304c-0.446,0.075,0.205,2.969-1.845,5.596
															c-2.044,2.633-5.252,3.024-5.183,3.434c0,0.19,0.825,0.402,2.156,0.135c1.308-0.252,3.11-1.095,4.364-2.702
															c1.249-1.61,1.528-3.44,1.359-4.65C116.283,215.883,115.792,215.241,115.595,215.304z"/>
													</g>
												</g>
											</g>
										</g>
									</g>
								</g>
							</g>
						</g>
					</g>
				</g>
				<g>
					<path style="fill:#FF725E;" d="M116.481,250.536c0,0-20.876,10.477-26.433,24.012c-5.557,13.536-4.384,22.143-2.696,36.083
						c1.688,13.94,9.144,66.189,12.693,75.19c2.771,7.029,6.368,16.019,24.881,12.788c18.514-3.232,32.397-5.592,32.397-5.592
						V245.165l0,0c0,0-6.182,12.474-20.934,13.647C127.104,259.549,116.481,250.536,116.481,250.536z"/>
					<g>
						<path style="fill:#263238;" d="M116.804,364.573c-0.01-0.034,0.498-0.219,1.428-0.524c0.928-0.311,2.287-0.708,3.979-1.153
							c3.383-0.892,8.129-1.883,13.44-2.479c5.314-0.589,10.163-0.667,13.659-0.542c1.749,0.061,3.162,0.149,4.135,0.248
							c0.974,0.093,1.51,0.161,1.508,0.197s-0.544,0.036-1.52,0.006c-0.975-0.036-2.387-0.069-4.13-0.082
							c-3.486-0.031-8.306,0.106-13.594,0.691c-5.285,0.593-10.016,1.521-13.41,2.319c-1.697,0.397-3.068,0.74-4.011,0.99
							C117.343,364.488,116.815,364.608,116.804,364.573z"/>
					</g>
					<g>
						<path style="fill:#263238;" d="M108.546,287.204c0.018,0,0.039,0.278,0.064,0.808c0.021,0.578,0.049,1.351,0.084,2.319
							c0.066,2.014,0.152,4.928,0.319,8.526c0.357,7.18,0.971,17.161,3.479,27.854c1.26,5.341,2.805,10.349,4.611,14.742
							c1.827,4.383,3.892,8.151,5.953,11.092c2.049,2.949,3.973,5.145,5.375,6.585c0.679,0.743,1.267,1.259,1.632,1.644
							c0.374,0.376,0.565,0.58,0.553,0.593c-0.012,0.013-0.227-0.164-0.625-0.516c-0.389-0.361-1.001-0.855-1.705-1.579
							c-1.451-1.402-3.43-3.573-5.532-6.516c-2.114-2.934-4.231-6.716-6.095-11.119c-1.843-4.414-3.409-9.444-4.675-14.807
							c-2.521-10.75-3.077-20.767-3.34-27.959c-0.12-3.604-0.15-6.521-0.154-8.537c0.006-0.97,0.01-1.743,0.013-2.321
							C108.514,287.483,108.527,287.204,108.546,287.204z"/>
					</g>
				</g>
			</g>
		</g>
		<g>
			<path style="fill:#263238;" d="M157.323,458.393c-0.144,0-0.26-93.933-0.26-209.778c0-115.885,0.117-209.798,0.26-209.798
				s0.26,93.913,0.26,209.798C157.584,364.46,157.467,458.393,157.323,458.393z"/>
		</g>
		<g>
			<path style="fill:#FFBF9D;" d="M167.793,321.106c0,0,2.853-2.802,0.042-4.75c-2.811-1.948-3.602-1.955-9.267-0.987
				c-5.664,0.968-9.187,2.746-9.664,5.57c-0.478,2.824,0.978,4.533,0.978,4.533s-2.84,1.332-2.768,5.971l1.544,4.425
				c0,0-2.065,3.262-1.184,5.985c0.881,2.723,2.68,3.87,2.68,3.87s-1.637,5.98,0.032,9.163c1.668,3.182,6.88,9.689,6.88,9.689
				l-0.096-17.116c0,0,11.472-7.455,11.946-11.296c0.474-3.842-0.648-4.87-0.648-4.87s2.852-2.689,0.158-5.089
				C168.426,326.202,170.941,323.284,167.793,321.106z"/>
			<g>
				<path style="fill:#FF9A6C;" d="M167.923,331.339c0.036,0.063-1.071,0.762-2.869,1.874c-1.797,1.113-4.293,2.63-6.994,4.381
					c-1.349,0.878-2.623,1.734-3.715,2.582c-1.082,0.844-1.931,1.772-2.565,2.594c-0.632,0.829-1.033,1.577-1.272,2.109
					c-0.237,0.534-0.319,0.849-0.354,0.843c-0.083,0.004,0.083-1.394,1.327-3.169c0.618-0.878,1.455-1.853,2.563-2.752
					c1.101-0.889,2.374-1.762,3.73-2.644c2.715-1.76,5.245-3.228,7.092-4.262C166.716,331.864,167.888,331.277,167.923,331.339z"/>
			</g>
			<g>
				<path style="fill:#FF9A6C;" d="M168.426,326.202c0.011,0.035-0.312,0.169-0.901,0.389c-0.703,0.254-1.536,0.555-2.504,0.904
					c-2.113,0.763-5.04,1.798-8.197,3.112c-1.571,0.667-3.06,1.339-4.311,2.093c-1.244,0.73-2.131,1.757-2.828,2.608
					c-0.687,0.871-1.122,1.662-1.377,2.227c-0.256,0.566-0.34,0.902-0.375,0.896c-0.085,0.005,0.101-1.483,1.458-3.345
					c0.682-0.906,1.551-1.983,2.867-2.794c1.283-0.804,2.779-1.492,4.364-2.166c3.18-1.323,6.134-2.305,8.281-2.981
					c1.075-0.333,1.95-0.588,2.56-0.748C168.073,326.237,168.416,326.168,168.426,326.202z"/>
			</g>
			<g>
				<path style="fill:#FF9A6C;" d="M168.016,320.855c0.012,0.071-1.006,0.31-2.654,0.676c-1.648,0.367-3.926,0.857-6.428,1.451
					c-2.502,0.596-4.748,1.205-6.335,1.745c-1.603,0.514-2.479,1.062-2.527,0.998c-0.021-0.029,0.184-0.191,0.582-0.465
					c0.408-0.247,1.025-0.569,1.817-0.878c1.579-0.637,3.83-1.308,6.343-1.906c2.513-0.597,4.81-1.032,6.479-1.307
					C166.962,320.896,168.004,320.785,168.016,320.855z"/>
			</g>
		</g>
	</g>
</g>
<g id="Character_2">
	<g>
		<g>
			<g>
				<g>
					<g>
						<g>
							<g>
								<g>
									<g>
										<g>
											<g>
												<g>
													<path style="fill:#263238;" d="M690.251,176.387c3.548,2.651,9.075,2.134,12.069-1.129
														c2.994-3.263,3.035-8.814,0.09-12.121c3.777-1.043,6.687-4.671,6.886-8.584c0.2-3.913-2.326-7.817-5.978-9.239
														c1.809-3.42,1.681-7.786-0.324-11.094c-2.005-3.309-5.817-5.441-9.686-5.419c-1.844-5.318-7.725-8.909-13.298-8.12
														c-2.895-2.493-7.443-2.83-10.673-0.791c-3.231,2.039-4.884,6.288-3.88,9.975"/>
												</g>
											</g>
										</g>
									</g>
								</g>
								<g>
									<g>
										<g>
											<g>
												<path style="fill:#AE7461;" d="M673.837,127.404l1.714,1.003c17.251,10.088,23.864,31.73,15.194,49.736
													c-8.063,16.747-17.186,35.145-22.31,43.663c-10.609,17.636-29.993,10.008-29.993,10.008l-10.98,22.222l-23.56,4.729
													l-18.774-31.279l41.455-79.637C635.782,128.473,654.723,117.675,673.837,127.404z"/>
											</g>
										</g>
										<g>
											<g>
												<g>
													<g>
														<g>
															<g>
																<g>
																	<g>
																		<path style="fill:#6F4439;" d="M638.443,231.814c0,0-11.582-5.892-19.131-20.365c0,0-1.791,16.173,16.871,24.94
																			L638.443,231.814z"/>
																	</g>
																</g>
															</g>
														</g>
													</g>
												</g>
											</g>
										</g>
										<g>
											<g>
												<g>
													<g>
														<g>
															<g>
																<path style="fill:#263238;" d="M693.802,168.997c0,0,1.821-13.866-2.025-19.599
																	c-4.656-6.941-11.621-1.448-16.798-6.797c-5.178-5.349-9.614-11.991-18.737-10.906
																	c-9.985,1.188-8.891,6.758-13.928,14.391c-20.424,30.943-31.545,36.567-24.402,20.543
																	c0.782-1.755-3.027-5.744,0.369-13.108c4.404-9.549,10.473-20.723,16.239-25.955
																	c4.86-4.41,10.125-6.342,18.058-7.227c12.522-1.397,24.585,5.47,32.243,11.047
																	C692.478,136.964,702.69,155.5,693.802,168.997z"/>
															</g>
														</g>
													</g>
												</g>
											</g>
										</g>
										<g>
											<g>
												<g>
													<g>
														<g>
															<g>
																<path style="fill:#AE7461;" d="M619.327,166.808c1.492-2.807,0.395-6.354-2.489-7.692
																	c-3.497-1.623-8.284-1.897-12.069,5.077c-6.715,12.372,7.091,16.562,7.305,16.218
																	C612.219,180.179,616.563,172.01,619.327,166.808z"/>
															</g>
														</g>
													</g>
												</g>
											</g>
										</g>
										<g>
											<g>
												<g>
													<g>
														<g>
															<g>
																<path style="fill:#6F4439;" d="M611.909,174.296c-0.033-0.069-0.298,0.034-0.753,0.003
																	c-0.443-0.03-1.115-0.249-1.629-0.841c-1.047-1.189-1.021-3.861,0.129-6.124c0.58-1.143,1.397-2.087,2.278-2.758
																	c0.869-0.7,1.797-1.015,2.518-0.775c0.737,0.204,0.989,0.85,0.952,1.281c-0.022,0.436-0.234,0.64-0.181,0.697
																	c0.018,0.05,0.378-0.064,0.556-0.629c0.082-0.273,0.095-0.644-0.066-1.039c-0.166-0.403-0.536-0.763-1.021-0.962
																	c-0.99-0.452-2.325-0.04-3.292,0.696c-1.022,0.712-1.968,1.759-2.619,3.042c-1.274,2.537-1.264,5.562,0.244,7.049
																	c0.747,0.7,1.615,0.831,2.149,0.743C611.724,174.583,611.939,174.342,611.909,174.296z"/>
															</g>
														</g>
													</g>
												</g>
											</g>
										</g>
									</g>
									<g>
										<g>
											<g>
												<g>
													<g>
														<path style="fill:#263238;" d="M633.326,143.416c0.948,1.999,1.965,4.084,3.755,5.383
															c1.79,1.3,4.602,1.479,6.024-0.216c0.639-0.762,1.006-1.863,1.943-2.191c1.119-0.392,2.2,0.568,3.155,1.271
															c3.312,2.44,9.719,0.952,12.627-1.957c0.112,1.875,1.846,3.436,3.723,3.354c1.877-0.081,2.667-0.292,4.448-0.89
															c1.781-0.598,3.917-0.814,5.389,0.353c0.823,0.653,1.351,1.679,2.301,2.127c1.678,0.791,3.549-0.621,4.716-2.063
															c1.167-1.442,2.435-3.179,4.289-3.25c1.718-0.065,3.071,1.344,4.413,2.42c1.341,1.075,3.439,1.839,4.655,0.623
															c0.638-0.638,0.778-1.619,0.745-2.521c-0.15-4.083-3.5-7.818-7.544-8.408c1.159-4.708-0.768-10.026-4.673-12.9
															c-3.906-2.874-9.556-3.13-13.706-0.622c-1.205-3.83-4.363-6.989-8.193-8.194c-3.83-1.206-8.228-0.425-11.409,2.024
															c-2.5-2.505-6.536-3.332-9.82-2.012c-3.283,1.32-5.624,4.71-5.695,8.248c-2.913-0.03-6.05,1.047-7.566,3.534
															c-1.515,2.487-0.531,6.424,2.281,7.182c-2.125,1.384-2.881,4.507-1.624,6.709c1.257,2.203,4.33,3.141,6.603,2.016"/>
													</g>
												</g>
											</g>
										</g>
									</g>
									<g>
										<g>
											<g>
												<g>
													<g>
														<g>
															<path style="fill:#455A64;" d="M686.777,141.554c0.01,0.007-0.036,0.081-0.133,0.221
																c-0.102,0.136-0.239,0.352-0.457,0.604c-0.44,0.495-1.151,1.194-2.25,1.824c-1.095,0.614-2.576,1.197-4.372,1.296
																c-1.776,0.125-3.902-0.234-5.805-1.491l0.363-0.149c-0.23,1.259-1.063,2.445-2.205,3.211
																c-1.125,0.8-2.46,1.311-3.825,1.771c-0.682,0.206-1.354,0.523-2.174,0.599c-0.794,0.069-1.602-0.095-2.342-0.412
																c-1.472-0.626-2.77-1.954-3.09-3.687l0.53,0.136c-1.721,2.234-4.507,3.846-7.55,4.043
																c-1.642,0.16-3.369-0.166-4.753-1.026c-1.398-0.836-2.463-2.012-3.426-3.161l0.408,0.047
																c-1.536,1.128-3.292,1.829-5.067,2.068c-1.751,0.25-3.67-0.125-4.905-1.322c-2.512-2.283-3.019-5.779-2.089-8.248
																l0.2,0.289c-1.876-0.057-3.446-0.875-4.532-1.828c-1.109-0.953-1.768-2.063-2.151-3
																c-0.38-0.95-0.466-1.748-0.489-2.278c0.006-0.534,0.042-0.81,0.059-0.808c0.09-0.014-0.137,1.158,0.648,2.994
																c0.405,0.894,1.07,1.944,2.154,2.832c1.061,0.891,2.568,1.631,4.316,1.657l0.303,0.004l-0.103,0.285
																c-0.839,2.319-0.309,5.615,2.038,7.702c1.127,1.071,2.819,1.392,4.478,1.156c1.663-0.231,3.345-0.913,4.781-1.977
																l0.227-0.169l0.181,0.215c0.95,1.127,1.985,2.252,3.279,3.02c1.284,0.788,2.831,1.084,4.394,0.938
																c2.876-0.189,5.487-1.695,7.127-3.803l0.412-0.53l0.118,0.666c0.262,1.476,1.408,2.69,2.729,3.255
																c0.661,0.287,1.378,0.435,2.068,0.379c0.67-0.049,1.355-0.351,2.045-0.557c1.355-0.445,2.647-0.932,3.704-1.67
																c1.076-0.711,1.811-1.751,2.039-2.88l0.07-0.348l0.293,0.199c1.779,1.208,3.804,1.592,5.519,1.503
																c1.734-0.061,3.182-0.589,4.266-1.152C685.99,142.782,686.706,141.475,686.777,141.554z"/>
														</g>
													</g>
												</g>
											</g>
										</g>
									</g>
								</g>
							</g>
						</g>
					</g>
					<g>
						<g>
							<g>
								<g>
									<g>
										<g>
											<g>
												<g>
													<g>
														<g>
															<g>
																<g>
																	<g>
																		<g>
																			<g>
																				<g>
																					<g>
																						<g>
																							<g>
																								<g>
																									<path style="fill:#263238;" d="M672.835,190.453c-0.748,1.357-2.516,1.842-3.948,1.086
																										c-1.428-0.755-1.984-2.465-1.234-3.823c0.749-1.357,2.516-1.844,3.945-1.089
																										C673.03,187.383,673.584,189.096,672.835,190.453z"/>
																								</g>
																							</g>
																						</g>
																					</g>
																				</g>
																			</g>
																		</g>
																	</g>
																</g>
															</g>
														</g>
													</g>
												</g>
											</g>
										</g>
									</g>
								</g>
							</g>
						</g>
						<g>
							<g>
								<g>
									<g>
										<g>
											<g>
												<g>
													<g>
														<g>
															<g>
																<g>
																	<g>
																		<g>
																			<g>
																				<g>
																					<g>
																						<g>
																							<g>
																								<g>
																									<g>
																										<path style="fill:#263238;" d="M683.567,185.33c-0.508,0.141-1.569-2.412-4.282-4.027
																											c-2.686-1.653-5.508-1.45-5.602-1.957c-0.057-0.233,0.616-0.635,1.859-0.747
																											c1.227-0.116,3.046,0.143,4.729,1.161c1.681,1.02,2.728,2.49,3.163,3.615
																											C683.882,184.512,683.809,185.274,683.567,185.33z"/>
																									</g>
																								</g>
																							</g>
																						</g>
																					</g>
																				</g>
																			</g>
																		</g>
																	</g>
																</g>
															</g>
														</g>
													</g>
												</g>
											</g>
										</g>
									</g>
								</g>
							</g>
						</g>
						<g>
							<g>
								<g>
									<g>
										<g>
											<g>
												<g>
													<g>
														<g>
															<g>
																<g>
																	<g>
																		<g>
																			<g>
																				<g>
																					<g>
																						<g>
																							<g>
																								<g>
																									<g>
																										<path style="fill:#263238;" d="M641.671,193.671c0.476,0.227-0.399,2.85,0.589,5.849
																											c0.942,3.009,3.205,4.708,2.943,5.153c-0.11,0.213-0.882,0.075-1.893-0.656
																											c-1.002-0.717-2.204-2.107-2.806-3.979c-0.599-1.873-0.424-3.669-0.014-4.803
																											C640.897,194.081,641.452,193.554,641.671,193.671z"/>
																									</g>
																								</g>
																							</g>
																						</g>
																					</g>
																				</g>
																			</g>
																		</g>
																	</g>
																</g>
															</g>
														</g>
													</g>
												</g>
											</g>
										</g>
									</g>
								</g>
							</g>
						</g>
						<g>
							<g>
								<g>
									<g>
										<g>
											<g>
												<g>
													<g>
														<g>
															<g>
																<g>
																	<g>
																		<g>
																			<g>
																				<g>
																					<g>
																						<g>
																							<g>
																								<g>
																									<path style="fill:#263238;" d="M648.017,177.558c-0.749,1.357-2.516,1.841-3.947,1.085
																										c-1.429-0.755-1.984-2.465-1.235-3.822c0.749-1.357,2.517-1.843,3.946-1.088
																										C648.213,174.489,648.766,176.202,648.017,177.558z"/>
																								</g>
																							</g>
																						</g>
																					</g>
																				</g>
																			</g>
																		</g>
																	</g>
																</g>
															</g>
														</g>
													</g>
												</g>
											</g>
										</g>
									</g>
								</g>
							</g>
						</g>
						<g>
							<g>
								<g>
									<g>
										<g>
											<g>
												<g>
													<g>
														<g>
															<g>
																<g>
																	<g>
																		<g>
																			<g>
																				<g>
																					<g>
																						<g>
																							<g>
																								<g>
																									<g>
																										<path style="fill:#263238;" d="M656.647,170.056c-0.509,0.141-1.574-2.413-4.284-4.027
																											c-2.686-1.651-5.508-1.449-5.603-1.957c-0.055-0.233,0.613-0.636,1.86-0.746
																											c1.227-0.117,3.045,0.143,4.729,1.16c1.681,1.02,2.728,2.491,3.164,3.615
																											C656.959,169.238,656.887,170.001,656.647,170.056z"/>
																									</g>
																								</g>
																							</g>
																						</g>
																					</g>
																				</g>
																			</g>
																		</g>
																	</g>
																</g>
															</g>
														</g>
													</g>
												</g>
											</g>
										</g>
									</g>
								</g>
							</g>
						</g>
						<g>
							<g>
								<g>
									<g>
										<g>
											<g>
												<g>
													<g>
														<g>
															<g>
																<g>
																	<g>
																		<g>
																			<g>
																				<g>
																					<g>
																						<g>
																							<g>
																								<g>
																									<path style="fill:#263238;" d="M653.896,196.683c0.08-0.161,1.937,0.556,4.874,1.841
																										c0.734,0.343,1.471,0.598,1.87,0.195c0.462-0.402,0.619-1.32,0.766-2.326
																										c0.352-2.063,0.723-4.225,1.11-6.49c1.651-9.198,3.287-16.593,3.657-16.524
																										c0.37,0.07-0.668,7.582-2.319,16.779c-0.424,2.259-0.826,4.412-1.214,6.47
																										c-0.21,0.943-0.294,2.104-1.267,2.929c-0.496,0.405-1.228,0.476-1.742,0.33
																										c-0.525-0.13-0.918-0.356-1.273-0.54C655.524,197.851,653.815,196.843,653.896,196.683z"/>
																								</g>
																							</g>
																						</g>
																					</g>
																				</g>
																			</g>
																		</g>
																	</g>
																</g>
															</g>
														</g>
													</g>
												</g>
											</g>
										</g>
									</g>
								</g>
							</g>
						</g>
						<g>
							<g>
								<g>
									<g>
										<g>
											<g>
												<g>
													<g>
														<g>
															<g>
																<g>
																	<g>
																		<g>
																			<g>
																				<g>
																					<path style="fill:#263238;" d="M664.279,160.475c-0.69,0.598-3.244-1.293-6.695-2.708
																						c-3.424-1.484-6.56-1.993-6.614-2.904c-0.012-0.429,0.836-0.88,2.296-1.017c1.449-0.142,3.501,0.1,5.563,0.968
																						c2.059,0.871,3.665,2.171,4.576,3.308C664.326,159.262,664.595,160.184,664.279,160.475z"/>
																				</g>
																			</g>
																		</g>
																	</g>
																</g>
															</g>
														</g>
													</g>
												</g>
											</g>
										</g>
									</g>
								</g>
							</g>
						</g>
						<g>
							<g>
								<g>
									<g>
										<g>
											<g>
												<g>
													<g>
														<g>
															<g>
																<g>
																	<g>
																		<g>
																			<g>
																				<g>
																					<path style="fill:#263238;" d="M687.25,174.934c-0.871,0.324-2.504-1.481-4.899-2.908
																						c-2.347-1.505-4.696-2.162-4.79-3.083c-0.024-0.434,0.657-0.869,1.89-0.94
																						c1.218-0.076,2.966,0.297,4.596,1.304c1.629,1.009,2.739,2.402,3.211,3.524
																						C687.741,173.961,687.651,174.762,687.25,174.934z"/>
																				</g>
																			</g>
																		</g>
																	</g>
																</g>
															</g>
														</g>
													</g>
												</g>
											</g>
										</g>
									</g>
								</g>
							</g>
						</g>
					</g>
				</g>
			</g>
			<g>
				<path style="fill:#FF725E;" d="M652.702,264.465l-18.406-21.645c-18.022-0.644-35.398-13.881-38.73-35.741l-18.338-8.462
					l-9.502,2.491l0.417,195.046c0,0,52.796-54.36,52.796-55.293C620.94,339.926,652.702,264.465,652.702,264.465z"/>
				<g>
					<path style="fill:#FF725E;" d="M586.295,335.61l20.109,13.593l27.73-54.167l18.568-30.361c0,0,13.55,13.077,8.029,38.28
						c-5.52,25.203-16.812,51.8-16.812,51.8l-6.063,16.657c0,0-4.475,16.213-9.744,21.231c-5.269,5.018-22.833,8.782-31.365,4.517
						s-26.752-37.224-26.752-37.224C581.987,352.786,589.036,342.426,586.295,335.61z"/>
					<g>
						<path style="fill:#263238;" d="M642.901,288.726c0.009,0.008-0.088,0.138-0.285,0.382c-0.222,0.269-0.514,0.622-0.882,1.067
							c-0.811,0.956-1.955,2.305-3.398,4.006c-2.978,3.462-7.185,8.353-12.225,14.211l0.033-0.051
							c-3.246,6.828-7.073,14.881-11.158,23.474c-2.962,6.194-5.789,12.105-8.364,17.491l-0.104-0.317
							c4.203,2.285,7.789,4.98,10.522,7.845c2.77,2.836,4.684,5.794,5.981,8.359c1.297,2.574,1.994,4.759,2.407,6.259
							c0.207,0.751,0.314,1.343,0.405,1.737c0.084,0.396,0.121,0.602,0.107,0.605c-0.013,0.003-0.077-0.198-0.186-0.587
							c-0.116-0.387-0.248-0.971-0.477-1.712c-0.459-1.48-1.195-3.635-2.518-6.167c-1.323-2.524-3.248-5.428-6.01-8.21
							c-2.726-2.812-6.288-5.456-10.46-7.703l-0.203-0.109l0.099-0.208c2.565-5.39,5.38-11.307,8.33-17.507
							c4.108-8.582,7.957-16.624,11.221-23.444l0.014-0.028l0.02-0.022c5.098-5.808,9.354-10.657,12.366-14.089
							c1.483-1.667,2.659-2.987,3.492-3.924c0.389-0.427,0.698-0.765,0.933-1.023C642.776,288.833,642.891,288.719,642.901,288.726z
							"/>
					</g>
					<g>
						<path style="fill:#263238;" d="M585.75,385.234c-0.012,0.007-0.126-0.15-0.334-0.459c-0.227-0.345-0.525-0.8-0.9-1.372
							c-0.796-1.247-1.916-3-3.316-5.192c-2.831-4.501-6.789-10.796-11.411-18.147l-0.139-0.221l0.232-0.124
							c4.249-2.271,8.715-5.326,12.193-9.622c1.748-2.183,3.137-4.59,3.954-7.103c0.411-1.253,0.68-2.531,0.758-3.793
							c0.037-0.63,0.033-1.257-0.049-1.861c-0.046-0.3-0.1-0.599-0.195-0.872c-0.079-0.272-0.231-0.549-0.372-0.649l0.26-0.412
							c7.159,4.796,13.285,8.899,17.664,11.833c2.131,1.449,3.836,2.609,5.048,3.434c0.555,0.388,0.997,0.696,1.332,0.931
							c0.3,0.215,0.452,0.332,0.444,0.344c-0.008,0.012-0.175-0.083-0.49-0.276c-0.346-0.218-0.802-0.505-1.375-0.866
							c-1.231-0.797-2.962-1.917-5.126-3.317c-4.405-2.895-10.567-6.944-17.768-11.676l0.26-0.412
							c0.365,0.267,0.475,0.597,0.587,0.909c0.11,0.316,0.169,0.638,0.22,0.962c0.09,0.647,0.095,1.303,0.059,1.959
							c-0.076,1.314-0.352,2.632-0.771,3.921c-0.834,2.585-2.254,5.047-4.035,7.271c-3.544,4.377-8.075,7.455-12.37,9.728
							l0.093-0.345c4.558,7.391,8.461,13.72,11.252,18.246c1.35,2.223,2.429,4.002,3.197,5.267c0.348,0.589,0.624,1.057,0.834,1.413
							C585.671,385.055,585.762,385.227,585.75,385.234z"/>
					</g>
				</g>
			</g>
			<path style="fill:#AE7461;" d="M581.59,331.26l-1.063,0.583l-10.532,8.441c0,0-2.052,7.006-1.955,7.443
				c0.097,0.437,4.788,10.281,4.788,10.281c14.458-8.513,14.006-19.537,14.006-19.537S582.132,332.043,581.59,331.26z"/>
			<g>
				<path style="fill:#263238;" d="M567.727,460.014c-0.144,0-0.26-92.879-0.26-207.425c0-114.586,0.117-207.445,0.26-207.445
					s0.26,92.859,0.26,207.445C567.987,367.134,567.87,460.014,567.727,460.014z"/>
			</g>
			<g>
				<path style="fill:#AE7461;" d="M567.367,179.907c0,0,12.257,4.255,13.472,7.496c1.216,3.242-0.506,6.382-0.506,6.382
					s1.578,3.444,0.941,6.28c-0.637,2.836-1.65,3.039-1.65,3.039s2.691,1.418,1.801,4.862c-0.89,3.444-2.814,4.66-2.814,4.66
					s1.418,4.153-0.405,7.293c-1.823,3.14-2.229,6.888-5.673,7.293c-3.444,0.405-19.348-4.66-20.563-8.104
					c-1.216-3.444,3.951-5.267,3.951-5.267s-10.332-2.938-10.13-6.483c0.203-3.545,3.951-4.761,3.951-4.761s-3.14-1.519-0.608-4.558
					c2.532-3.039,7.395-1.216,9.522-1.013c0,0-0.405-4.457,4.052-4.153l4.66-0.101V179.907z"/>
				<g>
					<path style="fill:#6F4439;" d="M579.8,194.585c0.032,0.016-0.098,0.349-0.368,0.934c-0.272,0.584-0.68,1.422-1.228,2.437
						c-0.275,0.507-0.582,1.06-0.953,1.638c-0.212,0.28-0.344,0.6-0.739,0.862c-0.429,0.202-0.774,0.213-1.167,0.28
						c-1.532,0.183-3.205,0.228-4.964,0.247c-1.76,0.008-3.431-0.014-4.963-0.129c-1.616-0.198-2.805-0.98-3.802-1.551
						c-0.983-0.615-1.731-1.177-2.233-1.582c-0.501-0.406-0.754-0.667-0.727-0.695c0.023-0.024,0.312,0.177,0.847,0.532
						c0.535,0.353,1.31,0.864,2.3,1.429c0.991,0.523,2.217,1.248,3.651,1.39c1.501,0.087,3.175,0.095,4.923,0.086
						c1.747-0.018,3.419-0.05,4.91-0.202c0.354-0.044,0.765-0.095,0.991-0.198c0.218-0.118,0.425-0.457,0.614-0.709
						c0.375-0.55,0.699-1.088,0.992-1.58C579.047,195.799,579.732,194.55,579.8,194.585z"/>
				</g>
				<g>
					<path style="fill:#6F4439;" d="M574.398,187.702c0.077,0.135-1.924,0.929-3.38,2.986c-0.316,0.439-0.574,0.891-0.778,1.318
						l-0.074,0.155l-0.164-0.011c-1.719-0.121-2.79,0.749-2.846,0.627c-0.032-0.038,0.18-0.297,0.665-0.582
						c0.479-0.281,1.26-0.569,2.211-0.533l-0.238,0.144c0.198-0.464,0.464-0.953,0.801-1.421c0.772-1.078,1.741-1.824,2.497-2.227
						C573.849,187.746,574.378,187.645,574.398,187.702z"/>
				</g>
				<g>
					<path style="fill:#6F4439;" d="M570.972,183.441c0.034,0.073-0.384,0.297-0.952,0.771c-0.568,0.468-1.274,1.227-1.742,2.237
						c-0.468,1.011-0.589,2.04-0.579,2.776c0.006,0.74,0.105,1.203,0.028,1.225c-0.059,0.02-0.29-0.416-0.395-1.2
						c-0.108-0.774-0.04-1.91,0.474-3.02c0.514-1.11,1.336-1.896,1.996-2.315C570.467,183.488,570.949,183.382,570.972,183.441z"/>
				</g>
				<g>
					<path style="fill:#6F4439;" d="M579.751,203.254c0.028,0.02-0.206,0.434-0.675,1.156c-0.477,0.714-1.17,1.767-2.289,2.86
						c-1.103,1.06-2.772,2.216-4.917,2.294c-2.126,0.078-4.276-0.723-6.518-1.354c-4.496-1.354-8.503-2.767-11.39-3.816
						c-1.443-0.526-2.607-0.965-3.407-1.279c-0.8-0.314-1.237-0.504-1.225-0.538c0.012-0.034,0.471,0.091,1.292,0.347
						c0.915,0.297,2.075,0.673,3.46,1.122c2.917,0.96,6.937,2.315,11.419,3.665c2.244,0.636,4.375,1.428,6.351,1.373
						c1.982-0.043,3.58-1.087,4.683-2.084c1.115-1.023,1.85-2.033,2.374-2.707C579.428,203.61,579.72,203.233,579.751,203.254z"/>
				</g>
				<g>
					<path style="fill:#6F4439;" d="M579.137,212.876c0.027,0.021-0.152,0.314-0.524,0.809c-0.374,0.493-0.941,1.193-1.749,1.963
						c-0.807,0.762-1.879,1.609-3.281,2.159c-1.397,0.556-3.088,0.727-4.786,0.501c-1.705-0.211-3.258-0.729-4.62-1.265
						c-1.363-0.54-2.555-1.087-3.567-1.515c-2.015-0.876-3.325-1.241-3.306-1.317c0.008-0.031,0.349,0.012,0.95,0.164
						c0.602,0.15,1.458,0.42,2.493,0.811c2.075,0.734,4.824,2.167,8.114,2.605c1.634,0.216,3.225,0.066,4.55-0.433
						c1.331-0.494,2.387-1.274,3.205-1.984C578.244,213.923,579.063,212.812,579.137,212.876z"/>
				</g>
			</g>
			<g>
				<path style="fill:#AE7461;" d="M540.736,307.55c0,0-2.415-3.657,2.346-5.519c4.76-1.863,14.074-4.898,17.041-5.174
					c2.967-0.276,18.214,3.519,18.214,3.519s5.381,1.587,5.312,5.45l-1.035,3.657c0,0,2.139,2.346,1.932,5.174
					c-0.207,2.829-1.794,4.899-1.794,4.899l-0.621,12.488c0,0-0.552,9.038-4.002,12.626c-3.45,3.588-9.107,2.691-9.107,2.691
					l-0.983,0.369c0,0-6.628-5.066-4.831-11.475l-7.502-5.107c0,0-15.937-2.208-16.765-6.485l0.276-2.208
					c0,0-5.933-0.897-5.933-5.036v-2.07c0,0-1.932-1.794-0.759-4.208c1.173-2.415,2.346-3.174,4.968-3.243
					S540.736,307.55,540.736,307.55z"/>
				<g>
					<path style="fill:#6F4439;" d="M568.392,325.38c0.001,0.089-1.674,0.051-4.296-0.456c-1.313-0.236-2.868-0.558-4.593-0.898
						c-0.862-0.166-1.769-0.346-2.704-0.471c-0.911-0.108-1.925-0.135-2.934-0.21c-4.06-0.258-7.734-0.521-10.391-0.737
						c-1.241-0.112-2.291-0.206-3.144-0.283c-0.742-0.078-1.15-0.139-1.148-0.175c0.002-0.036,0.416-0.044,1.161-0.028
						c0.855,0.032,1.908,0.071,3.153,0.117c2.66,0.122,6.333,0.326,10.388,0.584c1.017,0.076,1.991,0.102,2.982,0.224
						c0.963,0.136,1.869,0.327,2.733,0.507c1.689,0.372,3.229,0.712,4.569,1.008c1.299,0.284,2.354,0.492,3.085,0.616
						C567.984,325.304,568.393,325.336,568.392,325.38z"/>
				</g>
				<g>
					<path style="fill:#6F4439;" d="M570.443,316.701c0.002,0.035-0.524,0.08-1.468,0.046c-0.944-0.029-2.306-0.116-3.986-0.253
						c-1.68-0.137-3.678-0.323-5.894-0.544c-1.111-0.113-2.273-0.23-3.475-0.352c-1.187-0.109-2.446-0.122-3.725-0.154
						c-5.133-0.071-9.788-0.019-13.156-0.018c-1.609-0.004-2.95-0.007-3.989-0.009c-0.942-0.012-1.464-0.033-1.464-0.069
						c-0.001-0.036,0.519-0.083,1.46-0.133c0.941-0.05,2.304-0.106,3.988-0.156c3.368-0.095,8.022-0.206,13.171-0.134
						c1.289,0.033,2.541,0.048,3.768,0.168c1.202,0.132,2.363,0.26,3.474,0.382c2.187,0.244,4.172,0.465,5.878,0.655
						c1.599,0.168,2.931,0.308,3.964,0.417C569.924,316.641,570.441,316.664,570.443,316.701z"/>
				</g>
				<g>
					<path style="fill:#6F4439;" d="M573.386,307.226c0.013,0.028-0.438,0.201-1.277,0.233c-0.837,0.046-2.045-0.008-3.526-0.143
						c-1.482-0.13-3.238-0.356-5.182-0.58c-1.945-0.185-4.093-0.465-6.325-0.379c-1.122,0.041-2.194,0.189-3.256,0.356
						c-1.067,0.149-2.094,0.245-3.073,0.334c-1.958,0.169-3.722,0.284-5.205,0.368c-1.482,0.083-2.683,0.134-3.513,0.156
						c-0.83,0.022-1.29,0.015-1.293-0.021c-0.002-0.036,0.454-0.097,1.28-0.181c0.931-0.085,2.103-0.193,3.499-0.321
						c1.513-0.139,3.263-0.301,5.186-0.478c0.973-0.102,1.997-0.208,3.044-0.361c1.045-0.172,2.167-0.331,3.31-0.372
						c2.3-0.087,4.449,0.211,6.402,0.423c1.915,0.256,3.658,0.489,5.165,0.69c1.469,0.181,2.661,0.29,3.484,0.306
						C572.931,307.286,573.374,307.186,573.386,307.226z"/>
				</g>
			</g>
		</g>
	</g>
</g>
</svg>
